<svg xmlns="http://www.w3.org/2000/svg" xmlns:xlink="http://www.w3.org/1999/xlink" viewBox="0 0 512 512"><path d="M247 153c0-36.5 20.8-54.8 39.2-71 15.7-13.8 29.2-25.7 29.2-47.7 0-5.6 4.6-10.2 10.2-10.2s10.2 4.6 10.2 10.2c0 31.3-19.2 48-36 63-17.3 15.2-32.3 28.4-32.3 55.7z" fill="#597b91"/><path d="M487 215.6a92 92 0 0 0-88.9-72.8H114.5C71.3 141 34.2 177 25 215.6-3.8 283.8 1.6 344 1.6 426c0 52 63.8 64.5 90.3 23.8l61.6-90.6a57 57 0 0 0 27 6.8c47 0 47.6-37.4 78-37.4h4.4c30.3 0 30.8 37.4 78 37.4a57 57 0 0 0 20.2-3.7l60 87.5c26.5 40.7 90.3 27 90.3-23.7 0-82 4.4-142.2-24.3-210.4z" fill="#2b3b47"/><path d="M470.7 234.7a74 74 0 0 1-73.9 73.9 74 74 0 0 1-73.9-73.9 74 74 0 0 1 73.9-73.9 74 74 0 0 1 73.9 73.9zm-351-74a74 74 0 0 0-73.9 73.9 74 74 0 0 0 74 73.9 74 74 0 0 0 73.9-73.9 74 74 0 0 0-73.9-73.9z" fill="#132028"/><circle cx="398.1" cy="272.2" r="19.7" fill="#00b1ff"/><circle cx="398.1" cy="198.6" r="19.7" fill="#ffb636"/><circle cx="361.3" cy="235.4" r="19.7" fill="#ff473e"/><circle cx="434.9" cy="235.4" r="19.7" fill="#00b89c"/><path d="M181 274.5c-19 0-34.2 15.3-34.2 34.2 0 19 15.3 34.2 34.2 34.2s34.2-15.3 34.2-34.2-15.3-34.2-34.2-34.2zm152.8 0c-19 0-34.2 15.3-34.2 34.2 0 19 15.3 34.2 34.2 34.2s34.2-15.3 34.2-34.2-15.3-34.2-34.2-34.2z" fill="#597b91"/><path id="A" d="M136.8 208v-26.7c0-3-3.4-5.6-7.6-5.6h-18.7c-4.2 0-7.6 2.5-7.6 5.6V208c0 1.4.7 2.7 2 3.7l9.4 8c3 2.6 8.4 2.6 11.5 0l9.4-8c1.2-1 2-2.3 2-3.7z" fill="#597b91"/><use transform="rotate(90 120 235.7)" xlink:href="#A"/><use transform="rotate(180 119.8 234.7)" xlink:href="#A"/><use transform="rotate(270 118.8 234.9)" xlink:href="#A"/><path id="B" d="M311.5 261.5c0-4.2-3.4-7.7-7.7-7.7h-24.6c-4.2 0-7.7 3.4-7.7 7.7s3.4 7.7 7.7 7.7h24.6c4.2 0 7.7-3.4 7.7-7.7z" fill="#597b91"/><use xlink:href="#B" x="-63.7"/></svg>